<?xml version="1.0" standalone="no"?>
<!DOCTYPE svg PUBLIC "-//W3C//DTD SVG 20010904//EN"
 "http://www.w3.org/TR/2001/REC-SVG-20010904/DTD/svg10.dtd">
<svg version="1.0" xmlns="http://www.w3.org/2000/svg"
 width="512.000000pt" height="512.000000pt" viewBox="0 0 512.000000 512.000000"
 preserveAspectRatio="xMidYMid meet">

<g transform="translate(0.000000,512.000000) scale(0.100000,-0.100000)"
fill="#000000" stroke="none">
<path d="M575 4626 c-41 -18 -83 -69 -91 -111 -16 -88 -23 -79 397 -501 l390
-390 -83 -64 c-260 -201 -522 -525 -690 -855 l-73 -144 57 -115 c378 -759
1045 -1261 1813 -1362 151 -20 474 -14 610 11 213 39 398 97 574 181 l95 45
416 -415 c363 -363 420 -415 453 -421 60 -11 107 3 148 44 41 41 55 88 44 148
-6 34 -211 243 -1953 1986 -1152 1153 -1960 1955 -1979 1963 -40 17 -89 17
-128 0z m1104 -1410 l174 -174 -32 -54 c-73 -129 -111 -276 -111 -431 1 -234
83 -431 249 -598 167 -166 364 -248 598 -249 155 0 302 38 431 111 l54 32 146
-146 146 -146 -50 -22 c-225 -99 -469 -149 -724 -149 -286 0 -527 56 -790 181
-382 183 -716 504 -944 907 l-46 82 46 83 c122 216 303 442 465 585 98 85 196
162 208 162 3 0 84 -78 180 -174z m768 -768 c194 -194 353 -356 353 -360 0 -3
-26 -16 -57 -28 -72 -28 -214 -37 -296 -20 -194 40 -367 213 -407 407 -17 82
-8 224 20 296 12 31 24 57 28 57 4 0 166 -159 359 -352z"/>
<path d="M2345 4043 c-146 -18 -385 -70 -469 -103 l-30 -11 128 -128 128 -129
52 14 c162 43 461 56 655 29 606 -86 1148 -477 1485 -1072 l46 -83 -46 -82
c-98 -173 -194 -304 -345 -469 l-88 -95 113 -113 112 -112 75 78 c197 206 351
425 476 678 l58 115 -54 107 c-139 281 -296 500 -515 718 -363 361 -813 587
-1294 650 -102 14 -403 19 -487 8z"/>
<path d="M2418 3403 c-16 -2 -28 -7 -28 -11 0 -4 71 -77 158 -163 125 -124
167 -160 205 -173 67 -25 160 -89 207 -144 39 -45 110 -172 110 -196 0 -17
318 -331 327 -323 4 5 9 65 11 135 4 145 -8 222 -57 347 -43 112 -100 196
-201 295 -100 99 -191 154 -330 201 -87 29 -107 32 -235 35 -77 1 -152 0 -167
-3z"/>
</g>
</svg>
