<?xml version="1.0" standalone="no"?>
<!DOCTYPE svg PUBLIC "-//W3C//DTD SVG 20010904//EN"
 "http://www.w3.org/TR/2001/REC-SVG-20010904/DTD/svg10.dtd">
<svg version="1.0" xmlns="http://www.w3.org/2000/svg"
 width="512.000000pt" height="512.000000pt" viewBox="0 0 512.000000 512.000000"
 preserveAspectRatio="xMidYMid meet">

<g transform="translate(0.000000,512.000000) scale(0.100000,-0.100000)"
fill="#000000" stroke="none">
<path d="M2235 4215 c-942 -117 -1739 -666 -2176 -1502 -77 -147 -77 -159 0
-306 403 -772 1126 -1309 1981 -1472 319 -61 721 -61 1040 0 855 163 1578 700
1981 1472 77 147 77 159 0 306 -403 772 -1126 1309 -1981 1472 -237 45 -616
58 -845 30z m590 -350 c307 -36 547 -107 821 -241 253 -124 447 -265 659 -478
190 -191 284 -314 421 -553 18 -32 18 -34 0 -65 -137 -240 -231 -363 -421
-554 -212 -213 -406 -354 -659 -478 -698 -342 -1474 -342 -2172 0 -253 124
-447 265 -659 478 -190 191 -284 314 -421 554 -18 31 -18 33 0 65 137 239 231
362 421 553 157 158 243 228 421 344 459 299 1050 438 1589 375z"/>
<path d="M2450 3330 c-87 -14 -209 -56 -280 -97 -37 -22 -104 -77 -155 -128
-51 -51 -106 -118 -128 -155 -78 -135 -118 -325 -99 -473 14 -107 52 -226 99
-307 49 -84 199 -234 283 -283 81 -47 200 -85 307 -99 148 -19 338 21 473 99
85 49 235 199 283 283 78 135 118 325 99 472 -14 109 -52 227 -99 307 -68 117
-209 249 -330 310 -117 58 -326 91 -453 71z m234 -366 c74 -25 127 -58 177
-111 83 -87 119 -175 119 -293 0 -118 -36 -206 -119 -293 -82 -85 -180 -127
-301 -127 -121 0 -219 42 -301 127 -83 87 -119 175 -119 293 0 186 106 333
290 402 60 22 191 23 254 2z"/>
</g>
</svg>
