<svg width="1728" height="1117" viewBox="0 0 1728 1117" fill="none" xmlns="http://www.w3.org/2000/svg">
<g clip-path="url(#clip0_150_3)">
<rect width="1728" height="1117" rx="34.0328" fill="#F3F3FD"/>
<g filter="url(#filter0_f_150_3)">
<circle cx="378.581" cy="669.936" r="111.598" fill="#4461F2"/>
</g>
<g opacity="0.45" filter="url(#filter1_f_150_3)">
<circle cx="177.112" cy="407.236" r="111.598" fill="#4475F2"/>
</g>
<path d="M821.56 1079.4C821.56 1078.65 821.7 1078 821.98 1077.45C822.267 1076.89 822.68 1076.46 823.22 1076.15C823.767 1075.84 824.427 1075.68 825.2 1075.68C825.54 1075.68 825.84 1075.71 826.1 1075.77C826.367 1075.82 826.6 1075.9 826.8 1076V1076.92H826.72C826.52 1076.8 826.29 1076.71 826.03 1076.65C825.777 1076.59 825.5 1076.56 825.2 1076.56C824.667 1076.56 824.2 1076.66 823.8 1076.87C823.407 1077.08 823.1 1077.39 822.88 1077.81C822.667 1078.23 822.56 1078.76 822.56 1079.4C822.56 1080.04 822.667 1080.57 822.88 1080.99C823.1 1081.41 823.407 1081.72 823.8 1081.93C824.2 1082.14 824.667 1082.24 825.2 1082.24C825.5 1082.24 825.777 1082.21 826.03 1082.15C826.29 1082.09 826.52 1082 826.72 1081.88H826.8V1082.8C826.6 1082.9 826.367 1082.98 826.1 1083.03C825.84 1083.09 825.54 1083.12 825.2 1083.12C824.427 1083.12 823.767 1082.97 823.22 1082.68C822.68 1082.38 822.267 1081.95 821.98 1081.4C821.7 1080.84 821.56 1080.17 821.56 1079.4ZM828.004 1080.26C828.004 1079.67 828.108 1079.16 828.314 1078.74C828.528 1078.32 828.821 1078 829.194 1077.78C829.574 1077.55 830.011 1077.44 830.504 1077.44C830.998 1077.44 831.431 1077.55 831.804 1077.78C832.184 1078 832.478 1078.32 832.684 1078.74C832.898 1079.16 833.004 1079.67 833.004 1080.26C833.004 1080.85 832.898 1081.36 832.684 1081.78C832.478 1082.2 832.184 1082.52 831.804 1082.75C831.431 1082.97 830.998 1083.08 830.504 1083.08C829.998 1083.08 829.558 1082.97 829.184 1082.75C828.811 1082.52 828.521 1082.2 828.314 1081.78C828.108 1081.36 828.004 1080.85 828.004 1080.26ZM828.944 1080.26C828.944 1080.93 829.078 1081.43 829.344 1081.77C829.618 1082.11 830.004 1082.28 830.504 1082.28C831.004 1082.28 831.388 1082.11 831.654 1081.77C831.928 1081.43 832.064 1080.93 832.064 1080.26C832.064 1079.59 831.928 1079.08 831.654 1078.75C831.388 1078.41 831.004 1078.24 830.504 1078.24C830.004 1078.24 829.618 1078.41 829.344 1078.75C829.078 1079.08 828.944 1079.59 828.944 1080.26ZM834.48 1085.32V1079.52C834.48 1079.4 834.476 1079.24 834.47 1079.03C834.47 1078.82 834.463 1078.62 834.45 1078.41C834.443 1078.2 834.426 1078.04 834.4 1077.92L834.42 1077.84C834.713 1077.72 835.036 1077.62 835.39 1077.55C835.75 1077.48 836.1 1077.44 836.44 1077.44C836.86 1077.44 837.236 1077.5 837.57 1077.63C837.91 1077.76 838.2 1077.94 838.44 1078.19C838.68 1078.43 838.863 1078.72 838.99 1079.07C839.116 1079.42 839.18 1079.81 839.18 1080.26C839.18 1080.71 839.113 1081.11 838.98 1081.46C838.846 1081.81 838.656 1082.11 838.41 1082.36C838.163 1082.61 837.863 1082.8 837.51 1082.93C837.156 1083.06 836.76 1083.12 836.32 1083.12C836.113 1083.12 835.906 1083.1 835.7 1083.05C835.5 1083.01 835.34 1082.98 835.22 1082.95L835.28 1082.13C835.36 1082.18 835.48 1082.22 835.64 1082.26C835.806 1082.3 836.033 1082.32 836.32 1082.32C836.96 1082.32 837.44 1082.14 837.76 1081.79C838.08 1081.44 838.24 1080.93 838.24 1080.26C838.24 1079.59 838.076 1079.08 837.75 1078.75C837.423 1078.41 836.96 1078.24 836.36 1078.24C836.133 1078.24 835.913 1078.27 835.7 1078.32C835.493 1078.37 835.323 1078.43 835.19 1078.5L835.34 1078.22C835.36 1078.32 835.373 1078.44 835.38 1078.59C835.393 1078.74 835.4 1078.89 835.4 1079.04V1085.32H834.48ZM840.943 1085.32V1085.2L842.183 1082.16L843.943 1077.56H844.863V1077.68L841.823 1085.32H840.943ZM841.943 1083.2L839.743 1077.68V1077.56H840.703L842.473 1082.18L841.943 1083.2ZM845.944 1083V1079.56C845.944 1079.43 845.941 1079.25 845.934 1079.04C845.934 1078.83 845.928 1078.62 845.914 1078.41C845.908 1078.2 845.891 1078.04 845.864 1077.92L845.884 1077.84C846.058 1077.77 846.271 1077.72 846.524 1077.67C846.784 1077.62 847.041 1077.59 847.294 1077.56C847.554 1077.53 847.771 1077.52 847.944 1077.52C848.104 1077.52 848.234 1077.52 848.334 1077.53C848.434 1077.54 848.518 1077.55 848.584 1077.56V1078.36H848.504C848.418 1078.35 848.314 1078.34 848.194 1078.33C848.074 1078.32 847.964 1078.32 847.864 1078.32C847.658 1078.32 847.441 1078.34 847.214 1078.37C846.988 1078.4 846.791 1078.44 846.624 1078.47L846.804 1078.22C846.844 1078.44 846.864 1078.71 846.864 1079.04V1083H845.944ZM850.242 1076.6C850.076 1076.6 849.932 1076.55 849.812 1076.44C849.699 1076.33 849.642 1076.18 849.642 1076C849.642 1075.82 849.699 1075.68 849.812 1075.57C849.932 1075.46 850.076 1075.4 850.242 1075.4C850.416 1075.4 850.559 1075.46 850.672 1075.57C850.786 1075.68 850.842 1075.82 850.842 1076C850.842 1076.18 850.786 1076.33 850.672 1076.44C850.559 1076.55 850.416 1076.6 850.242 1076.6ZM849.782 1083V1079.28C849.782 1079.15 849.779 1078.97 849.772 1078.76C849.772 1078.55 849.766 1078.34 849.752 1078.13C849.746 1077.92 849.729 1077.76 849.702 1077.64L849.722 1077.56H850.702V1083H849.782ZM854.184 1085.4C853.944 1085.4 853.681 1085.38 853.394 1085.33C853.107 1085.29 852.864 1085.23 852.664 1085.14V1084.32H852.744C852.964 1084.42 853.204 1084.49 853.464 1084.53C853.731 1084.58 853.971 1084.6 854.184 1084.6C854.617 1084.6 854.964 1084.54 855.224 1084.41C855.484 1084.28 855.671 1084.09 855.784 1083.83C855.904 1083.57 855.964 1083.24 855.964 1082.84V1079C855.964 1078.84 855.967 1078.69 855.974 1078.55C855.987 1078.41 856.004 1078.28 856.024 1078.15L856.194 1078.43C856.047 1078.38 855.881 1078.34 855.694 1078.3C855.514 1078.26 855.317 1078.24 855.104 1078.24C854.664 1078.24 854.297 1078.32 854.004 1078.47C853.711 1078.62 853.491 1078.84 853.344 1079.14C853.197 1079.43 853.124 1079.8 853.124 1080.24C853.124 1080.88 853.287 1081.36 853.614 1081.68C853.947 1082 854.444 1082.16 855.104 1082.16C855.291 1082.16 855.467 1082.15 855.634 1082.12C855.801 1082.09 855.984 1082.04 856.184 1081.96L856.164 1082.8C855.937 1082.85 855.737 1082.89 855.564 1082.92C855.391 1082.95 855.224 1082.96 855.064 1082.96C854.491 1082.96 853.987 1082.86 853.554 1082.66C853.121 1082.45 852.784 1082.15 852.544 1081.75C852.304 1081.34 852.184 1080.84 852.184 1080.24C852.184 1079.81 852.247 1079.42 852.374 1079.08C852.507 1078.73 852.701 1078.44 852.954 1078.2C853.207 1077.95 853.514 1077.77 853.874 1077.64C854.234 1077.51 854.644 1077.44 855.104 1077.44C855.404 1077.44 855.721 1077.48 856.054 1077.55C856.387 1077.62 856.684 1077.7 856.944 1077.8L856.964 1077.88C856.937 1078 856.917 1078.16 856.904 1078.37C856.897 1078.58 856.891 1078.79 856.884 1079C856.884 1079.21 856.884 1079.39 856.884 1079.52V1082.84C856.884 1083.37 856.777 1083.83 856.564 1084.21C856.357 1084.6 856.051 1084.89 855.644 1085.09C855.244 1085.3 854.757 1085.4 854.184 1085.4ZM858.806 1083V1077.12C858.806 1076.99 858.802 1076.81 858.796 1076.6C858.796 1076.39 858.789 1076.18 858.776 1075.97C858.769 1075.76 858.752 1075.6 858.726 1075.48L858.746 1075.4H859.726V1078.11L859.536 1077.82C859.749 1077.72 859.982 1077.63 860.236 1077.56C860.496 1077.48 860.792 1077.44 861.126 1077.44C861.406 1077.44 861.676 1077.48 861.936 1077.55C862.202 1077.62 862.439 1077.74 862.646 1077.92C862.852 1078.09 863.016 1078.33 863.136 1078.64C863.262 1078.94 863.326 1079.33 863.326 1079.8V1083H862.406V1079.92C862.406 1079.48 862.342 1079.14 862.216 1078.91C862.096 1078.67 861.922 1078.51 861.696 1078.42C861.476 1078.33 861.219 1078.28 860.926 1078.28C860.752 1078.28 860.579 1078.3 860.406 1078.33C860.239 1078.36 860.079 1078.41 859.926 1078.46C859.779 1078.51 859.646 1078.56 859.526 1078.61L859.726 1078.15V1083H858.806ZM867.046 1083.08C866.579 1083.08 866.206 1083.01 865.926 1082.86C865.646 1082.71 865.443 1082.5 865.316 1082.23C865.189 1081.96 865.126 1081.64 865.126 1081.28V1076.08H866.046V1081.2C866.046 1081.58 866.129 1081.86 866.296 1082.03C866.463 1082.2 866.726 1082.28 867.086 1082.28C867.226 1082.28 867.363 1082.27 867.496 1082.24C867.629 1082.21 867.746 1082.17 867.846 1082.12H867.926V1082.9C867.826 1082.95 867.699 1082.99 867.546 1083.02C867.393 1083.06 867.226 1083.08 867.046 1083.08ZM864.286 1078.36V1077.56H867.606V1078.36H864.286ZM871.168 1079.4C871.168 1078.63 871.311 1077.96 871.598 1077.41C871.891 1076.85 872.298 1076.42 872.818 1076.13C873.344 1075.83 873.954 1075.68 874.648 1075.68C875.341 1075.68 875.948 1075.83 876.468 1076.13C876.994 1076.42 877.401 1076.85 877.688 1077.41C877.981 1077.96 878.128 1078.63 878.128 1079.4C878.128 1080.17 877.981 1080.84 877.688 1081.4C877.401 1081.95 876.994 1082.38 876.468 1082.68C875.948 1082.97 875.341 1083.12 874.648 1083.12C873.954 1083.12 873.344 1082.97 872.818 1082.68C872.298 1082.38 871.891 1081.95 871.598 1081.4C871.311 1080.84 871.168 1080.17 871.168 1079.4ZM871.888 1079.4C871.888 1080.09 872.004 1080.67 872.238 1081.13C872.471 1081.58 872.794 1081.92 873.208 1082.15C873.621 1082.37 874.101 1082.48 874.648 1082.48C875.194 1082.48 875.674 1082.37 876.088 1082.14C876.501 1081.91 876.824 1081.56 877.058 1081.11C877.291 1080.65 877.408 1080.08 877.408 1079.4C877.408 1078.72 877.291 1078.15 877.058 1077.7C876.824 1077.24 876.501 1076.9 876.088 1076.67C875.674 1076.44 875.194 1076.32 874.648 1076.32C874.101 1076.32 873.621 1076.43 873.208 1076.66C872.794 1076.88 872.471 1077.22 872.238 1077.68C872.004 1078.13 871.888 1078.71 871.888 1079.4ZM872.848 1079.4C872.848 1078.8 873.031 1078.31 873.398 1077.93C873.764 1077.55 874.288 1077.36 874.968 1077.36C875.141 1077.36 875.311 1077.37 875.478 1077.4C875.644 1077.43 875.781 1077.46 875.888 1077.51V1078.12H875.848C875.741 1078.07 875.611 1078.03 875.458 1078C875.304 1077.97 875.141 1077.96 874.968 1077.96C874.528 1077.96 874.178 1078.08 873.918 1078.31C873.658 1078.54 873.528 1078.9 873.528 1079.4C873.528 1079.9 873.658 1080.27 873.918 1080.5C874.178 1080.73 874.528 1080.84 874.968 1080.84C875.141 1080.84 875.304 1080.83 875.458 1080.8C875.611 1080.77 875.741 1080.73 875.848 1080.68H875.888V1081.29C875.781 1081.34 875.644 1081.37 875.478 1081.4C875.311 1081.43 875.141 1081.44 874.968 1081.44C874.288 1081.44 873.764 1081.25 873.398 1080.87C873.031 1080.49 872.848 1080 872.848 1079.4ZM881.926 1083C881.866 1082.88 881.823 1082.72 881.796 1082.52C881.776 1082.32 881.766 1082.16 881.766 1082.04C881.766 1081.67 881.826 1081.33 881.946 1081.02C882.073 1080.71 882.279 1080.44 882.566 1080.21C882.859 1079.98 883.256 1079.8 883.756 1079.68L884.246 1079.56C884.686 1079.45 885.016 1079.27 885.236 1079.02C885.456 1078.77 885.566 1078.42 885.566 1077.96C885.566 1077.5 885.409 1077.15 885.096 1076.9C884.783 1076.65 884.326 1076.52 883.726 1076.52C883.499 1076.52 883.289 1076.54 883.096 1076.57C882.903 1076.6 882.723 1076.65 882.556 1076.7C882.389 1076.75 882.233 1076.81 882.086 1076.88H882.006V1076C882.206 1075.92 882.459 1075.85 882.766 1075.78C883.073 1075.71 883.406 1075.68 883.766 1075.68C884.406 1075.68 884.926 1075.78 885.326 1075.99C885.726 1076.19 886.019 1076.46 886.206 1076.81C886.393 1077.15 886.486 1077.53 886.486 1077.96C886.486 1078.64 886.303 1079.18 885.936 1079.57C885.576 1079.96 885.119 1080.22 884.566 1080.36L884.086 1080.48C883.559 1080.61 883.186 1080.79 882.966 1081.04C882.753 1081.29 882.646 1081.58 882.646 1081.92C882.646 1082.03 882.656 1082.11 882.676 1082.16C882.696 1082.21 882.726 1082.28 882.766 1082.35L882.296 1082.16H886.686V1083H881.926ZM890.408 1083.12C889.961 1083.12 889.575 1083.03 889.248 1082.85C888.921 1082.66 888.655 1082.4 888.448 1082.07C888.248 1081.74 888.098 1081.34 887.998 1080.89C887.898 1080.44 887.848 1079.94 887.848 1079.4C887.848 1078.86 887.898 1078.36 887.998 1077.91C888.098 1077.46 888.248 1077.06 888.448 1076.73C888.655 1076.4 888.921 1076.14 889.248 1075.96C889.575 1075.77 889.961 1075.68 890.408 1075.68C890.861 1075.68 891.248 1075.77 891.568 1075.96C891.895 1076.14 892.158 1076.4 892.358 1076.73C892.565 1077.06 892.718 1077.46 892.818 1077.91C892.918 1078.36 892.968 1078.86 892.968 1079.4C892.968 1079.94 892.918 1080.44 892.818 1080.89C892.718 1081.34 892.565 1081.74 892.358 1082.07C892.158 1082.4 891.895 1082.66 891.568 1082.85C891.248 1083.03 890.861 1083.12 890.408 1083.12ZM890.408 1082.28C890.781 1082.28 891.085 1082.17 891.318 1081.95C891.558 1081.73 891.731 1081.41 891.838 1080.98C891.951 1080.55 892.008 1080.03 892.008 1079.4C892.008 1078.77 891.951 1078.25 891.838 1077.82C891.731 1077.39 891.558 1077.07 891.318 1076.85C891.085 1076.63 890.781 1076.52 890.408 1076.52C890.035 1076.52 889.728 1076.63 889.488 1076.85C889.255 1077.07 889.081 1077.39 888.968 1077.82C888.861 1078.25 888.808 1078.77 888.808 1079.4C888.808 1080.03 888.861 1080.55 888.968 1080.98C889.081 1081.41 889.255 1081.73 889.488 1081.95C889.728 1082.17 890.035 1082.28 890.408 1082.28ZM894.25 1083C894.19 1082.88 894.147 1082.72 894.12 1082.52C894.1 1082.32 894.09 1082.16 894.09 1082.04C894.09 1081.67 894.15 1081.33 894.27 1081.02C894.397 1080.71 894.604 1080.44 894.89 1080.21C895.184 1079.98 895.58 1079.8 896.08 1079.68L896.57 1079.56C897.01 1079.45 897.34 1079.27 897.56 1079.02C897.78 1078.77 897.89 1078.42 897.89 1077.96C897.89 1077.5 897.734 1077.15 897.42 1076.9C897.107 1076.65 896.65 1076.52 896.05 1076.52C895.824 1076.52 895.614 1076.54 895.42 1076.57C895.227 1076.6 895.047 1076.65 894.88 1076.7C894.714 1076.75 894.557 1076.81 894.41 1076.88H894.33V1076C894.53 1075.92 894.784 1075.85 895.09 1075.78C895.397 1075.71 895.73 1075.68 896.09 1075.68C896.73 1075.68 897.25 1075.78 897.65 1075.99C898.05 1076.19 898.344 1076.46 898.53 1076.81C898.717 1077.15 898.81 1077.53 898.81 1077.96C898.81 1078.64 898.627 1079.18 898.26 1079.57C897.9 1079.96 897.444 1080.22 896.89 1080.36L896.41 1080.48C895.884 1080.61 895.51 1080.79 895.29 1081.04C895.077 1081.29 894.97 1081.58 894.97 1081.92C894.97 1082.03 894.98 1082.11 895 1082.16C895.02 1082.21 895.05 1082.28 895.09 1082.35L894.62 1082.16H899.01V1083H894.25ZM900.292 1081.78H900.372C900.552 1081.89 900.806 1082 901.132 1082.11C901.459 1082.22 901.832 1082.28 902.252 1082.28C902.746 1082.28 903.129 1082.21 903.402 1082.06C903.676 1081.91 903.866 1081.73 903.972 1081.5C904.079 1081.27 904.132 1081.04 904.132 1080.8C904.132 1080.36 903.992 1080.02 903.712 1079.79C903.432 1079.56 903.012 1079.44 902.452 1079.44C902.026 1079.44 901.669 1079.48 901.382 1079.55C901.102 1079.62 900.872 1079.68 900.692 1079.72L900.612 1079.68V1077.68C900.612 1077.55 900.609 1077.37 900.602 1077.15C900.602 1076.93 900.596 1076.71 900.582 1076.5C900.576 1076.29 900.559 1076.12 900.532 1076L900.552 1075.92C900.706 1075.88 900.896 1075.85 901.122 1075.83C901.349 1075.81 901.632 1075.8 901.972 1075.8H904.772V1076.64H901.132L901.502 1076.42C901.509 1076.51 901.516 1076.62 901.522 1076.75C901.529 1076.88 901.532 1077 901.532 1077.12V1079.11L901.302 1078.77C901.476 1078.74 901.666 1078.71 901.872 1078.68C902.086 1078.65 902.292 1078.64 902.492 1078.64C903.372 1078.64 904.026 1078.83 904.452 1079.21C904.879 1079.59 905.092 1080.12 905.092 1080.8C905.092 1081.27 904.976 1081.67 904.742 1082.02C904.516 1082.37 904.189 1082.64 903.762 1082.83C903.342 1083.02 902.839 1083.12 902.252 1083.12C901.852 1083.12 901.479 1083.08 901.132 1083.01C900.792 1082.94 900.512 1082.84 900.292 1082.72V1081.78Z" fill="#6F6C90"/>
</g>
<defs>
<filter id="filter0_f_150_3" x="-46.0854" y="245.27" width="849.333" height="849.333" filterUnits="userSpaceOnUse" color-interpolation-filters="sRGB">
<feFlood flood-opacity="0" result="BackgroundImageFix"/>
<feBlend mode="normal" in="SourceGraphic" in2="BackgroundImageFix" result="shape"/>
<feGaussianBlur stdDeviation="156.534" result="effect1_foregroundBlur_150_3"/>
</filter>
<filter id="filter1_f_150_3" x="-247.555" y="-17.4311" width="849.333" height="849.333" filterUnits="userSpaceOnUse" color-interpolation-filters="sRGB">
<feFlood flood-opacity="0" result="BackgroundImageFix"/>
<feBlend mode="normal" in="SourceGraphic" in2="BackgroundImageFix" result="shape"/>
<feGaussianBlur stdDeviation="156.534" result="effect1_foregroundBlur_150_3"/>
</filter>
<clipPath id="clip0_150_3">
<rect width="1728" height="1117" rx="34.0328" fill="white"/>
</clipPath>
</defs>
</svg>
